# xmcd
# 
# Track frame offsets:
#     187
#     19817
#     38557
#     60527
#     76545
#     100772
#     119160
#     138395
#     157302
#     175995
# 
# Disc length: 2616
# 
# Revision: 1
# Processed by: cddbd v1.5.2PL0 Copyright (c) Steve Scherf et al.
# Submitted via: fre:ac v1.0.31
# 
DISCID=7e0a360a
DTITLE=Various Artist - Xa Em Ky Niem
DYEAR=0
DGENRE=
TTITLE0=Don Hồ - Xa em ky niem
TTITLE1=Ngọc Hương - Tinh buon dem mua
TTITLE2=Don Hồ and Ngọc Hương - Tinh la
TTITLE3=Don Hồ - Trieu doa hoa hong
TTITLE4=Ngọc Hương - Tri tim nguc tu
TTITLE5=Don Hồ - Nguoi yeu oi gia tu
TTITLE6=Ngọc Hương - Mong manh cuoc tinh
TTITLE7=Don Hồ and Ngọc Hương - Dung roi xa nhau
TTITLE8=Don Hồ - Dem say tinh ai
TTITLE9=Ngọc Hương - Mong sau
EXTD=
EXTT0=
EXTT1=
EXTT2=
EXTT3=
EXTT4=
EXTT5=
EXTT6=
EXTT7=
EXTT8=
EXTT9=
PLAYORDER=
